%
M48
M72
T01C0.01181
T02C0.01378
T03C0.01575
T04C0.02362
T05C0.03150
T06C0.03200
T07C0.03600
T08C0.03937
T09C0.04000
T10C0.05118
T11C0.09000
T12C0.11811
%
T01
X206850Y87657
T02
X85100Y217407
X84850Y206657
X141850Y143407
X149350Y159657
X163350Y140657
X180600Y129907
X192850Y151907
X202600Y141157
X208600Y134657
X215850Y134907
X232850Y152215
X226600Y155407
X239600Y145530
X227100Y115907
X201600Y95657
X216600Y82907
X197350Y75407
X193600Y72907
X193600Y60907
X131600Y112469
X124600Y112157
X118100Y112657
X119850Y130407
X104600Y128657
X90100Y112657
X103600Y98407
X124600Y77907
X89850Y44657
X76600Y47157
X66350Y46907
X56100Y46907
X12850Y128907
X164600Y205657
X201350Y173657
X208018Y161407
X221350Y173907
X206218Y199407
X256850Y200907
X283350Y170157
X295350Y192657
X320350Y192907
X333100Y154157
X310350Y121657
X314100Y116157
X276100Y49907
T03
X57600Y293026
X57600Y318157
X57600Y347657
X57850Y372907
X134100Y200157
X134100Y175157
X126600Y154657
X102100Y164907
X154850Y155907
X159850Y180657
X189850Y167907
X189850Y155407
X208600Y148681
X211350Y144657
X203077Y134657
X199600Y129157
X196600Y114157
X194600Y97157
X190850Y88657
X198100Y81907
X217350Y101907
X219100Y87407
X236850Y92407
X242600Y86907
X245850Y49907
X241850Y44657
X206350Y46157
X171600Y46657
X166350Y55157
X161223Y55407
X142850Y67657
X143100Y78157
X155850Y77407
X156100Y89884
X180100Y120657
X216350Y128657
X233600Y130657
X236600Y135619
X239350Y139407
X298600Y67157
X319350Y70907
X327850Y84157
X334100Y78157
X323850Y95907
X330100Y98907
X339850Y125657
X374600Y96407
X374850Y81657
X360350Y85407
X370600Y59407
X386600Y64407
X344850Y56407
X331350Y58157
X147600Y224657
T04
X95850Y155907
X47350Y118407
X37350Y118407
X37350Y108407
X37350Y98407
X37350Y88407
X47350Y88407
X47350Y98407
X47350Y108407
X27350Y108407
X27350Y98407
X27350Y88407
X17350Y88407
X17350Y98407
X17350Y108407
X17350Y118407
X27350Y118407
T05
X269350Y160907
X269350Y150907
X269350Y140907
X269350Y130907
X269350Y120907
X261350Y30157
X251350Y30157
X241350Y30157
X231350Y30157
X208600Y30157
X198600Y30157
X188600Y30157
X166350Y30407
X156350Y30407
X146350Y30407
X123100Y30407
X113100Y30407
X103100Y30407
X80350Y30407
X70350Y30407
X60350Y30407
X50350Y30407
X27100Y30407
X17100Y30407
X361100Y31407
X351100Y31407
T06
X93100Y206657
X73100Y206657
X156350Y145157
X156350Y126157
X34600Y62657
X24600Y62657
T07
X226850Y187407
X226850Y177407
X236850Y177407
X246850Y177407
X246850Y187407
X236850Y187407
X308521Y58207
X308521Y50407
X298679Y50407
X298679Y58207
T08
X21305Y269049
X21305Y286766
X21305Y301549
X21305Y319266
X21305Y334049
X21305Y351766
X21305Y364049
X21305Y381766
X46895Y381766
X46895Y364049
X46895Y351766
X46895Y334049
X46895Y319266
X46895Y301549
X46895Y286766
X46895Y269049
X212850Y253907
X222850Y253907
X232850Y253907
X242850Y253907
X252850Y253907
X262850Y253907
X272850Y253907
X282850Y253907
X292850Y253907
X302850Y253907
X303100Y216907
X293100Y216907
X283100Y216907
X273100Y216907
X263100Y216907
X253100Y216907
X243100Y216907
X233100Y216907
X223100Y216907
X213100Y216907
X345927Y341199
X345927Y351199
X345927Y361199
X345927Y371199
T09
X257600Y79907
X227600Y79907
T10
X120555Y167657
X146145Y167657
T11
X327300Y39707
X279900Y39707
T12
X74805Y264152
X74805Y386199
X370080Y264152
X381100Y216407
X370080Y386199
X12600Y72907
X383850Y34657
M30
